<?xml version="1.0" standalone="no"?>
<!DOCTYPE svg PUBLIC "-//W3C//DTD SVG 20010904//EN"
 "http://www.w3.org/TR/2001/REC-SVG-20010904/DTD/svg10.dtd">
<svg version="1.0" xmlns="http://www.w3.org/2000/svg"
 width="512.000000pt" height="512.000000pt" viewBox="0 0 512.000000 512.000000"
 preserveAspectRatio="xMidYMid meet">
<metadata>
Created by potrace 1.14, written by Peter Selinger 2001-2017
</metadata>
<g transform="translate(0.000000,512.000000) scale(0.100000,-0.100000)"
fill="#000000" stroke="none">
<path d="M4074 4670 c-25 -12 -158 -138 -369 -349 l-329 -331 -34 33 c-19 17
-73 71 -121 118 -107 106 -139 120 -221 98 -21 -6 -19 -4 -316 -300 l-272
-271 -404 404 c-223 221 -415 411 -426 420 -27 22 -88 31 -130 19 -25 -8 -203
-180 -716 -693 -376 -376 -690 -696 -698 -713 -28 -57 -9 -132 45 -175 26 -21
42 -25 94 -25 35 0 67 5 71 10 4 6 21 22 38 38 l30 27 0 -705 c0 -636 -1 -706
-15 -704 -9 1 -18 1 -21 0 -3 -1 -29 -3 -59 -5 -44 -3 -57 -8 -77 -31 -13 -16
-24 -31 -25 -34 0 -3 -2 -15 -4 -25 -8 -41 34 -106 74 -113 48 -9 82 -10 87
-2 3 5 10 6 17 2 16 -10 58 -10 63 -1 3 5 11 5 17 1 16 -10 218 -10 224 0 2 4
10 4 16 0 19 -11 151 -10 159 2 5 7 8 7 8 0 0 -12 40 -13 57 -2 7 4 14 4 16 0
6 -10 208 -10 223 0 6 3 14 3 18 0 11 -11 150 -10 158 2 5 7 8 7 8 -1 0 -11
119 -12 137 -1 5 4 13 3 17 0 4 -4 35 -8 69 -9 86 -2 89 -3 81 -15 -8 -14 -8
-134 1 -148 3 -6 2 -11 -2 -11 -10 0 -10 -66 -1 -76 4 -3 3 -17 -2 -30 -7 -17
-6 -24 3 -24 7 0 8 -3 2 -8 -11 -8 -13 -47 -3 -57 3 -3 3 -18 -1 -33 -4 -15
-4 -42 0 -59 4 -18 4 -33 0 -33 -3 0 -6 -25 -6 -55 0 -30 4 -55 8 -55 5 0 5
-5 2 -11 -9 -13 -9 -175 0 -188 3 -6 2 -11 -2 -11 -10 0 -9 -71 0 -87 12 -19
-13 -26 -98 -28 -96 -3 -148 -27 -169 -80 -39 -99 19 -197 119 -201 24 -1 48
-5 54 -8 6 -4 11 -4 11 1 0 10 52 9 68 -1 7 -4 12 -4 12 1 0 4 21 7 47 5 27
-1 54 -3 61 -3 172 3 221 3 229 -2 5 -3 15 -2 23 3 9 5 19 5 27 -2 7 -6 13 -7
13 -2 0 11 51 10 68 0 7 -4 12 -4 12 1 0 4 21 7 47 5 27 -1 54 -3 61 -3 172 3
221 3 229 -2 5 -3 15 -2 23 3 9 5 19 5 27 -2 7 -6 13 -7 13 -2 0 11 51 10 68
0 7 -4 12 -4 12 1 0 4 21 7 47 5 27 -1 54 -3 61 -3 172 3 221 3 229 -2 5 -3
15 -2 23 3 9 5 19 5 27 -2 7 -6 13 -7 13 -2 0 11 51 10 68 0 7 -4 12 -4 12 1
0 4 21 7 47 5 27 -1 54 -3 61 -3 172 3 221 3 229 -2 5 -3 15 -2 23 3 9 5 19 5
27 -2 7 -6 13 -7 13 -2 0 11 51 10 68 0 7 -4 12 -4 12 1 0 4 21 7 47 5 27 -1
54 -3 61 -3 172 3 221 3 229 -2 5 -3 15 -2 23 3 9 5 19 5 27 -2 7 -6 13 -7 13
-2 0 11 51 10 68 0 7 -4 12 -4 12 1 0 4 21 7 47 5 27 -1 54 -3 61 -3 172 3
221 3 229 -2 5 -3 15 -2 23 3 9 5 19 5 27 -2 7 -6 13 -7 13 -2 0 11 51 10 68
0 7 -4 12 -4 12 1 0 4 21 7 47 5 55 -3 43 -3 158 -1 95 3 123 12 160 58 43 53
37 129 -13 183 -29 32 -63 41 -152 44 -96 2 -92 0 -89 38 2 19 0 38 -3 41 -4
4 -3 18 2 31 7 17 6 24 -3 24 -7 0 -8 3 -2 8 6 4 10 16 10 27 0 11 -4 23 -10
27 -6 5 -6 8 2 8 9 0 11 19 3 40 -1 3 -1 10 0 15 3 12 2 211 -1 223 -1 4 0 12
1 17 3 12 2 211 -1 223 -1 4 0 12 1 17 3 12 2 126 0 140 -1 6 -1 15 0 20 3 12
2 211 -1 223 -1 4 0 12 1 17 5 22 2 216 -3 221 -3 3 -2 17 3 30 7 17 6 24 -3
24 -7 0 -8 3 -2 8 6 4 10 16 10 27 0 11 -4 23 -10 27 -6 5 -6 8 2 8 9 0 11 19
3 40 -1 3 -1 10 0 15 3 12 2 211 -1 223 -1 4 0 12 1 17 7 33 3 166 -5 169 -5
3 -2 5 7 5 9 1 23 -6 31 -14 8 -8 17 -11 21 -8 3 4 6 1 6 -6 0 -7 5 -9 10 -6
6 3 10 2 10 -4 0 -18 99 -3 130 19 33 23 62 72 64 105 1 19 9 20 113 23 111 3
112 3 144 34 28 29 31 36 26 82 -3 40 -10 53 -33 70 -16 12 -37 22 -46 22 -10
1 -21 3 -25 4 -5 1 -20 1 -35 0 -17 -1 -28 4 -29 12 -1 7 -2 215 -3 462 -1
466 0 484 39 470 8 -4 15 -1 15 5 0 6 7 11 15 11 8 0 15 5 15 11 0 6 7 17 15
26 11 10 15 30 13 61 l-2 45 -433 434 c-238 238 -434 433 -435 433 -2 0 -17 4
-34 9 -24 7 -41 4 -70 -9z"/>
</g>
</svg>
